<?xml version="1.0" encoding="utf-8"?>
<!-- Generator: Adobe Illustrator 19.1.0, SVG Export Plug-In . SVG Version: 6.00 Build 0)  -->
<svg version="1.1" id="Layer_1" xmlns="http://www.w3.org/2000/svg" xmlns:xlink="http://www.w3.org/1999/xlink" x="0px" y="0px"
	 viewBox="0 0 231 41" style="enable-background:new 0 0 231 41;" xml:space="preserve">
<metadata><?xpacket begin="﻿" id="W5M0MpCehiHzreSzNTczkc9d"?>
<x:xmpmeta xmlns:x="adobe:ns:meta/" x:xmptk="Adobe XMP Core 5.6-c067 79.157747, 2015/03/30-23:40:42        ">
   <rdf:RDF xmlns:rdf="http://www.w3.org/1999/02/22-rdf-syntax-ns#">
      <rdf:Description rdf:about=""/>
   </rdf:RDF>
</x:xmpmeta>
                                                                                                    
                                                                                                    
                                                                                                    
                                                                                                    
                                                                                                    
                                                                                                    
                                                                                                    
                                                                                                    
                                                                                                    
                                                                                                    
                                                                                                    
                                                                                                    
                                                                                                    
                                                                                                    
                                                                                                    
                                                                                                    
                                                                                                    
                                                                                                    
                                                                                                    
                                                                                                    
                           
<?xpacket end="w"?></metadata>
<style type="text/css">
	.st0{fill:#A5A5A8;}
</style>
<g>
	<path class="st0" d="M5.0384,37.3225v1.0533H1v-5.9532h1.2292v4.8998H5.0384z"/>
	<path class="st0" d="M8.3119,37.0884h1.1957c-0.1674,0.7774-0.9031,1.4213-2.0318,1.4213c-1.3378,0-2.1154-0.9369-2.1154-2.2912
		c0-1.2542,0.7776-2.2237,2.107-2.2237c0.9782,0,1.6973,0.5514,1.9649,1.4126c0.092,0.2929,0.1339,0.6189,0.1339,1.0871h-3.052
		c0.0335,0.8781,0.46,1.1873,0.9616,1.1873C7.9439,37.6817,8.2534,37.4308,8.3119,37.0884z M6.5392,35.759h1.8563
		c-0.0751-0.644-0.4597-0.9369-0.9281-0.9369C6.9908,34.8222,6.6312,35.1151,6.5392,35.759z"/>
	<path class="st0" d="M13.0193,37.0884h1.1957c-0.1674,0.7774-0.9031,1.4213-2.0318,1.4213c-1.3378,0-2.1154-0.9369-2.1154-2.2912
		c0-1.2542,0.7776-2.2237,2.107-2.2237c0.9782,0,1.6973,0.5514,1.9649,1.4126c0.092,0.2929,0.1339,0.6189,0.1339,1.0871h-3.052
		c0.0335,0.8781,0.46,1.1873,0.9616,1.1873C12.6513,37.6817,12.9608,37.4308,13.0193,37.0884z M11.2469,35.759h1.856
		c-0.0751-0.644-0.4597-0.9369-0.9281-0.9369C11.6982,34.8222,11.3386,35.1151,11.2469,35.759z"/>
	<path class="st0" d="M18.2534,33.476v1.6222h2.5332v1.0533h-2.5332v2.2243h-1.2292v-5.9532h3.9714v1.0533H18.2534z"/>
	<path class="st0" d="M21.0602,38.3758v-1.3963h1.2877v1.3963H21.0602z"/>
	<path class="st0" d="M30.9181,38.3758v-2.9597c0-0.7441,0.0166-1.4883,0.0501-2.2324h-0.0166
		c-0.1924,0.7273-0.4096,1.4714-0.6355,2.1905l-0.9447,3.0016h-1.4047l-0.9447-3.0016c-0.2256-0.7191-0.4431-1.4633-0.6355-2.1905
		h-0.0166c0.0335,0.7442,0.0501,1.4883,0.0501,2.2324v2.9597h-1.1788v-5.9532h1.9733l0.8612,2.7343
		c0.2256,0.7191,0.4262,1.4633,0.5852,2.1905h0.0166c0.159-0.7273,0.3596-1.4714,0.5855-2.1905l0.8612-2.7343h1.9731v5.9532H30.9181
		z"/>
	<path class="st0" d="M33.1916,33.4259v-1.0033h1.1707v1.0033H33.1916z M33.1916,38.3758v-4.2477h1.1707v4.2477H33.1916z"/>
	<path class="st0" d="M39.2542,35.7672v2.6086h-1.1707v-2.4916c0-0.644-0.2842-0.9363-0.7441-0.9363
		c-0.4848,0-0.8361,0.3843-0.8361,1.1535v2.2744h-1.1704v-4.2477h1.0953v0.5351h0.0166c0.276-0.3762,0.7025-0.6353,1.2461-0.6353
		C38.6437,34.028,39.2542,34.6132,39.2542,35.7672z"/>
	<path class="st0" d="M42.9701,38.3758v-0.5602h-0.0166c-0.2594,0.4349-0.7275,0.669-1.2207,0.669
		c-1.0702,0-1.7643-0.8781-1.7643-2.2324c0-1.3544,0.6856-2.2324,1.7474-2.2324c0.485,0,0.945,0.2172,1.2041,0.6184h0.0166v-2.2156
		h1.1707v5.9532H42.9701z M41.1892,36.2522c0,0.8111,0.3596,1.3375,0.9197,1.3375c0.5267,0,0.8862-0.4932,0.8862-1.3375
		c0-0.8449-0.3596-1.3381-0.8862-1.3381C41.5488,34.9142,41.1892,35.4411,41.1892,36.2522z"/>
	<path class="st0" d="M47.8062,37.0884h1.1957c-0.1674,0.7774-0.9031,1.4213-2.0318,1.4213c-1.3378,0-2.1154-0.9369-2.1154-2.2912
		c0-1.2542,0.7776-2.2237,2.107-2.2237c0.9782,0,1.6973,0.5514,1.9649,1.4126c0.092,0.2929,0.1339,0.6189,0.1339,1.0871h-3.052
		c0.0335,0.8781,0.46,1.1873,0.9616,1.1873C47.4383,37.6817,47.7477,37.4308,47.8062,37.0884z M46.0335,35.759h1.8563
		c-0.0751-0.644-0.4597-0.9369-0.9281-0.9369C46.4851,34.8222,46.1255,35.1151,46.0335,35.759z"/>
	<path class="st0" d="M49.8038,38.3758v-5.9532h1.1704v5.9532H49.8038z"/>
	<path class="st0" d="M52.5545,39.814h-0.7022l0.4597-1.4382h-0.4265v-1.3963h1.2877v1.3963L52.5545,39.814z"/>
	<path class="st0" d="M57.1615,36.9207l-0.4682,1.4551h-1.2877l2.0653-5.9532h1.6554l2.0653,5.9532H59.904l-0.46-1.4551H57.1615z
		 M58.9843,35.4743c-0.2425-0.7692-0.4766-1.5553-0.6772-2.3244h-0.0169c-0.2006,0.7692-0.4265,1.5553-0.6688,2.3244l-0.1255,0.393
		h1.6138L58.9843,35.4743z"/>
	<path class="st0" d="M64.3482,34.1118v1.0114c-0.1339-0.025-0.251-0.0419-0.368-0.0419c-0.7188,0-1.1034,0.4518-1.1034,1.288
		v2.0065h-1.1707v-4.2477h1.0787v0.6021h0.0166c0.2842-0.4594,0.6606-0.6685,1.1622-0.6685
		C64.0806,34.0617,64.2311,34.078,64.3482,34.1118z"/>
	<path class="st0" d="M68.7839,35.7084h-1.2207c-0.0419-0.5014-0.3429-0.8106-0.7945-0.8106c-0.5683,0-0.9113,0.5182-0.9113,1.3544
		c0,0.8361,0.3429,1.3544,0.9113,1.3544c0.4516,0,0.7526-0.3429,0.7861-0.8949h1.2292c-0.092,1.0789-0.8612,1.798-2.0068,1.798
		c-1.2959,0-2.1404-0.8862-2.1404-2.2575c0-1.3713,0.8446-2.2575,2.1404-2.2575C67.9228,33.9948,68.6919,34.7139,68.7839,35.7084z"
		/>
	<path class="st0" d="M70.6895,34.5968c0.301-0.3849,0.7191-0.5689,1.1707-0.5689c0.9529,0,1.5634,0.5852,1.5634,1.7393v2.6086
		h-1.1707v-2.4916c0-0.644-0.2842-0.9363-0.7441-0.9363c-0.4848,0-0.8361,0.3762-0.8361,1.1535v2.2744h-1.1704v-5.9532h1.1704
		v2.1742H70.6895z"/>
	<path class="st0" d="M74.3762,33.4259v-1.0033h1.1707v1.0033H74.3762z M74.3762,38.3758v-4.2477h1.1707v4.2477H74.3762z"/>
	<path class="st0" d="M78.7742,37.4558v0.8949c-0.159,0.0501-0.4181,0.0838-0.6189,0.0838c-0.9782,0-1.4045-0.393-1.4045-1.38
		V34.998h-0.6856v-0.8699h0.6856v-1.1034h1.1704v1.1034h0.8111v0.8699h-0.8111v1.8476c0,0.4682,0.1505,0.6522,0.552,0.6522
		C78.5817,37.4978,78.6988,37.4814,78.7742,37.4558z"/>
	<path class="st0" d="M82.0801,37.0884h1.1957c-0.1674,0.7774-0.9031,1.4213-2.0318,1.4213c-1.3378,0-2.1154-0.9369-2.1154-2.2912
		c0-1.2542,0.7776-2.2237,2.107-2.2237c0.9782,0,1.6973,0.5514,1.9649,1.4126c0.092,0.2929,0.1339,0.6189,0.1339,1.0871h-3.052
		c0.0335,0.8781,0.46,1.1873,0.9616,1.1873C81.7121,37.6817,82.0216,37.4308,82.0801,37.0884z M80.3074,35.759h1.8563
		c-0.0751-0.644-0.4597-0.9369-0.9281-0.9369C80.7589,34.8222,80.3994,35.1151,80.3074,35.759z"/>
	<path class="st0" d="M87.9832,35.7084h-1.2207c-0.0419-0.5014-0.343-0.8106-0.7945-0.8106c-0.5683,0-0.9113,0.5182-0.9113,1.3544
		c0,0.8361,0.3429,1.3544,0.9113,1.3544c0.4515,0,0.7526-0.3429,0.7861-0.8949h1.2292c-0.092,1.0789-0.8612,1.798-2.0068,1.798
		c-1.2959,0-2.1404-0.8862-2.1404-2.2575c0-1.3713,0.8446-2.2575,2.1404-2.2575C87.122,33.9948,87.8912,34.7139,87.9832,35.7084z"/>
	<path class="st0" d="M90.9987,37.4558v0.8949c-0.159,0.0501-0.4181,0.0838-0.6189,0.0838c-0.9782,0-1.4045-0.393-1.4045-1.38
		V34.998h-0.6856v-0.8699h0.6856v-1.1034h1.1704v1.1034h0.8111v0.8699h-0.8111v1.8476c0,0.4682,0.1505,0.6522,0.552,0.6522
		C90.8063,37.4978,90.9233,37.4814,90.9987,37.4558z"/>
	<path class="st0" d="M92.3849,39.814h-0.7025l0.46-1.4382h-0.4265v-1.3963h1.2877v1.3963L92.3849,39.814z"/>
	<path class="st0" d="M97.8781,32.4226c2.0234,0,3.1606,1.0702,3.1606,2.9766s-1.1372,2.9766-3.1606,2.9766h-1.9815v-5.9532H97.8781
		z M97.1174,37.3225h0.7441c1.2793,0,1.9064-0.6358,1.9064-1.9232s-0.6271-1.9232-1.9064-1.9232h-0.7441V37.3225z"/>
	<path class="st0" d="M101.5069,38.3758v-1.3963h1.2877v1.3963H101.5069z"/>
	<path class="st0" d="M106.0948,32.4226c1.4466,0,2.1824,0.7692,2.1824,1.9232c0,1.1535-0.7357,1.9227-2.1824,1.9227h-1.0199v2.1072
		h-1.2292v-5.9532H106.0948z M105.0749,35.249h0.8528c0.7776,0,1.0953-0.3429,1.0953-0.9031s-0.3176-0.9031-1.0953-0.9031h-0.8528
		V35.249z"/>
	<path class="st0" d="M107.9843,38.3758v-1.3963h1.2877v1.3963H107.9843z"/>
	<path class="st0" d="M114.9712,34.4879h-1.2373c-0.0751-0.6941-0.5351-1.1121-1.2292-1.1121c-0.9031,0-1.4548,0.7692-1.4548,2.0234
		c0,1.2624,0.5435,2.0234,1.4298,2.0234c0.7022,0,1.1622-0.4099,1.2542-1.1372h1.2624c-0.117,1.4132-1.0615,2.2243-2.5166,2.2243
		c-1.6723,0-2.7006-1.1791-2.7006-3.1105c0-1.9232,1.0368-3.1105,2.7256-3.1105C113.9761,32.2887,114.913,33.1918,114.9712,34.4879z
		"/>
	<path class="st0" d="M115.6392,38.3758v-1.3963h1.288v1.3963H115.6392z"/>
</g>
<g>
	<path class="st0" d="M20.9591,9.6718h-5.3993c0-2.6812-1.5575-4.2398-4.4929-4.2398c-2.3546,0-3.9488,1.1595-3.9488,2.8262
		c0,1.9934,1.5575,2.6456,5.6156,3.6601c4.8563,1.1951,9.0594,2.4638,9.0594,8.0805c0,4.8909-4.0592,8.1519-10.0739,8.1519
		c-6.4127,0-10.4351-3.1874-10.4351-9.0583h5.5074c0,3.116,1.7035,4.7471,5.0002,4.7471c2.718,0,4.4572-1.2687,4.4572-3.2978
		c0-2.2821-1.6667-2.7169-5.3268-3.659c-4.8552-1.2319-9.2757-2.3914-9.2757-8.0448c0-4.5286,3.8775-7.6446,9.5298-7.6446
		C17.6256,1.1933,20.9591,4.1276,20.9591,9.6718"/>
	<path class="st0" d="M28.5678,11.1937c1.3044-1.6667,3.116-2.4638,5.0726-2.4638c4.1306,0,6.7761,2.5363,6.7761,7.5365v11.3047
		h-5.0726V16.7736c0-2.7905-1.2319-4.0581-3.2253-4.0581c-2.1015,0-3.6233,1.631-3.6233,5.0002v9.8554h-5.0726V1.7732h5.0726v9.4206
		H28.5678z"/>
	<path class="st0" d="M54.6193,21.9918h5.1819c-0.7247,3.3691-3.9132,6.1596-8.8052,6.1596c-5.7973,0-9.1675-4.0581-9.1675-9.929
		c0-5.4338,3.3702-9.638,9.1318-9.638c4.2387,0,7.3547,2.3914,8.5153,6.1239c0.398,1.2676,0.5786,2.6812,0.5786,4.7103H46.8298
		c0.1449,3.8039,1.9923,5.1451,4.1662,5.1451C53.0251,24.5638,54.3663,23.4768,54.6193,21.9918 M46.9379,16.2302h8.0437
		c-0.3255-2.7894-1.9923-4.0581-4.0213-4.0581C48.8945,12.1721,47.337,13.4409,46.9379,16.2302"/>
	<rect x="61.6124" y="1.7734" class="st0" width="5.0726" height="25.799"/>
	<path class="st0" d="M79.0403,23.5858v3.8764c-0.6879,0.2185-1.8116,0.3634-2.6813,0.3634c-4.2398,0-6.0871-1.7035-6.0871-5.979
		v-8.9133h-2.9711V9.165h2.9711V4.3823h5.0726V9.165h3.5152v3.7682h-3.5152v8.0081c0,2.029,0.6522,2.8251,2.3914,2.8251
		C78.2064,23.7664,78.7136,23.6939,79.0403,23.5858"/>
	<path class="st0" d="M97.4107,18.368c0,5.979-3.6601,9.7829-9.4206,9.7829c-5.7616,0-9.4217-3.8039-9.4217-9.7829
		s3.6601-9.7829,9.4217-9.7829C93.7506,8.5851,97.4107,12.389,97.4107,18.368 M83.8953,18.368c0,3.5876,1.5942,5.8697,4.0949,5.8697
		c2.4995,0,4.0938-2.2821,4.0938-5.8697s-1.5943-5.8697-4.0938-5.8697C85.4895,12.4982,83.8953,14.7804,83.8953,18.368"/>
	<path class="st0" d="M115.9619,16.2664v11.3047h-5.0726V16.7736c0-2.7894-1.2319-4.0581-3.2253-4.0581
		c-2.1015,0-3.6233,1.6667-3.6233,5.0002v9.8554h-5.0726V9.1647h4.7471v2.3189h0.0725c1.1951-1.631,3.0436-2.7537,5.3982-2.7537
		C113.3164,8.7299,115.9619,11.2662,115.9619,16.2664"/>
	<path class="st0" d="M143.6805,27.5715V14.745c0-3.2253,0.0725-6.4495,0.2174-9.6748h-0.0725
		c-0.8339,3.1517-1.776,6.377-2.7537,9.4931l-4.0949,13.0082h-6.0871l-4.0938-13.0082c-0.9789-3.116-1.9209-6.3413-2.7537-9.4931
		h-0.0725c0.1438,3.2253,0.2174,6.4495,0.2174,9.6748v12.8265h-5.1094V1.7725h8.551l3.7326,11.8488
		c0.9777,3.116,1.8473,6.3413,2.5363,9.4931h0.0725c0.6879-3.1517,1.5575-6.377,2.5363-9.4931l3.7314-11.8488h8.5521v25.799
		H143.6805z"/>
	<path class="st0" d="M152.0857,1.7734h5.0726v4.348h-5.0726V1.7734z M152.0857,9.1649h5.0726v18.4064h-5.0726V9.1649z"/>
	<path class="st0" d="M176.9422,16.2664v11.3047h-5.0726V16.7736c0-2.7894-1.2319-4.0581-3.2242-4.0581
		c-2.1026,0-3.6244,1.6667-3.6244,5.0002v9.8554h-5.0726V9.1647h4.7471v2.3189h0.0724c1.1951-1.631,3.0436-2.7537,5.3982-2.7537
		C174.2966,8.7299,176.9422,11.2662,176.9422,16.2664"/>
	<path class="st0" d="M191.3633,27.5712v-2.4271h-0.0725c-1.1227,1.8841-3.1528,2.8986-5.2911,2.8986
		c-4.6378,0-7.6446-3.805-7.6446-9.6748s2.9711-9.6748,7.5733-9.6748c2.1015,0,4.0938,0.9421,5.2164,2.6824h0.0736V1.7733h5.0726
		v25.7979H191.3633z M183.6451,18.368c0,3.5152,1.5574,5.7973,3.9856,5.7973c2.2832,0,3.8407-2.1372,3.8407-5.7973
		s-1.5575-5.7973-3.8407-5.7973C185.2026,12.5707,183.6451,14.8528,183.6451,18.368"/>
	<path class="st0" d="M210.6745,21.9918h5.1819c-0.7247,3.3691-3.9132,6.1596-8.8052,6.1596c-5.7973,0-9.1664-4.0581-9.1664-9.929
		c0-5.4338,3.3691-9.638,9.1307-9.638c4.2387,0,7.3559,2.3914,8.5153,6.1239c0.398,1.2676,0.5786,2.6812,0.5786,4.7103H202.885
		c0.1449,3.8039,1.9922,5.1451,4.1662,5.1451C209.0814,24.5638,210.4214,23.4768,210.6745,21.9918 M202.9931,16.2302h8.0437
		c-0.3255-2.7894-1.9922-4.0581-4.0213-4.0581C204.9508,12.1721,203.3922,13.4409,202.9931,16.2302"/>
	<rect x="217.6675" y="1.7734" class="st0" width="5.0726" height="25.799"/>
	<path class="st0" d="M226.0938,2.5788h-0.3412c0-0.3846-0.2118-0.5675-0.5964-0.5675c-0.3222,0-0.5162,0.1572-0.5162,0.4058
		c0,0.2787,0.2007,0.359,0.6299,0.4649c0.4939,0.1215,0.8863,0.2464,0.8863,0.7815c0,0.4682-0.3657,0.7681-0.9343,0.7681
		c-0.6076,0-0.9744-0.3144-0.9744-0.9153h0.3478c0,0.4281,0.2386,0.6266,0.631,0.6266c0.3724,0,0.582-0.1728,0.582-0.4616
		c0-0.2887-0.2163-0.3623-0.6377-0.4694c-0.5017-0.1237-0.8752-0.2486-0.8752-0.7726c0-0.4214,0.3333-0.718,0.864-0.718
		C225.7828,1.7214,226.0938,2.0146,226.0938,2.5788"/>
	<path class="st0" d="M229.082,4.381V3.0555c0-0.33,0.0033-0.6633,0.0078-0.9967h-0.0078
		c-0.1137,0.3333-0.2341,0.6622-0.3556,0.9967l-0.4839,1.3256h-0.388l-0.4838-1.3256c-0.1204-0.3345-0.2419-0.6633-0.3545-0.9967
		h-0.0078c0.0033,0.3333,0.0078,0.6667,0.0078,0.9967V4.381h-0.33V1.7734h0.5418l0.4727,1.2854c0.1171,0.33,0.2352,0.67,0.3445,1
		h0.0067c0.1104-0.33,0.2274-0.67,0.3445-1l0.4694-1.2854h0.5463V4.381H229.082z"/>
</g>
</svg>
