<svg id="Layer_1" data-name="Layer 1" xmlns="http://www.w3.org/2000/svg" viewBox="0 0 288 47.81"><defs><style>.cls-1{fill:#a7a5a5;}</style></defs><title>shelton-mindel-full</title><path class="cls-1" d="M24.84,10.7H18c0-3.39-2-5.35-5.67-5.35-3,0-5,1.46-5,3.57,0,2.52,2,3.34,7.09,4.62,6.13,1.51,11.44,3.11,11.44,10.2C25.89,29.92,20.77,34,13.17,34,5.08,34,0,30,0,22.6H7c0,3.93,2.15,6,6.31,6,3.43,0,5.63-1.6,5.63-4.16,0-2.88-2.1-3.43-6.72-4.62C6,18.25.46,16.79.46,9.65.46,3.93,5.35,0,12.49,0c8.14,0,12.35,3.71,12.35,10.7"/><path class="cls-1" d="M34.44,12.63a7.92,7.92,0,0,1,6.4-3.11c5.21,0,8.55,3.2,8.55,9.51V33.3H43V19.67c0-3.52-1.56-5.12-4.07-5.12s-4.57,2.06-4.57,6.31V33.3h-6.4V.73h6.4V12.63Z"/><path class="cls-1" d="M67.33,26.26h6.54C73,30.51,68.93,34,62.76,34c-7.32,0-11.57-5.12-11.57-12.53,0-6.86,4.25-12.17,11.53-12.17a10.73,10.73,0,0,1,10.75,7.73A19.29,19.29,0,0,1,74.2,23H57.5c.18,4.8,2.52,6.5,5.26,6.5,2.56,0,4.25-1.37,4.57-3.25M57.64,19H67.79c-.41-3.52-2.52-5.12-5.08-5.12s-4.57,1.6-5.08,5.12"/><rect class="cls-1" x="76.16" y="0.73" width="6.4" height="32.57"/><path class="cls-1" d="M98.16,28.27v4.89a12.92,12.92,0,0,1-3.39.46c-5.35,0-7.69-2.15-7.69-7.55V14.82H83.34V10.06h3.75V4h6.4v6h4.44v4.76H93.5V24.93c0,2.56.82,3.57,3,3.57a5.73,5.73,0,0,0,1.65-.23"/><path class="cls-1" d="M121.36,21.68c0,7.55-4.62,12.35-11.89,12.35s-11.89-4.8-11.89-12.35,4.62-12.35,11.89-12.35,11.89,4.8,11.89,12.35m-17.06,0c0,4.53,2,7.41,5.17,7.41s5.17-2.88,5.17-7.41-2-7.41-5.17-7.41-5.17,2.88-5.17,7.41"/><path class="cls-1" d="M144.78,19V33.3h-6.4V19.67c0-3.52-1.56-5.12-4.07-5.12s-4.57,2.1-4.57,6.31V33.3h-6.4V10.06h6V13h.09a8.27,8.27,0,0,1,6.82-3.48c5.21,0,8.55,3.2,8.55,9.51"/><path class="cls-1" d="M179.77,33.3V17.11q0-6.11.27-12.21H180c-1.05,4-2.24,8.05-3.48,12L171.31,33.3h-7.68l-5.17-16.42c-1.23-3.93-2.42-8-3.48-12h-.09q.27,6.11.27,12.21V33.3h-6.45V.73h10.8l4.71,15c1.23,3.93,2.33,8,3.2,12h.09c.87-4,2-8.05,3.2-12l4.71-15h10.8V33.3Z"/><path class="cls-1" d="M190.38.73h6.4V6.22h-6.4Zm0,9.33h6.4V33.3h-6.4Z"/><path class="cls-1" d="M221.76,19V33.3h-6.4V19.67c0-3.52-1.56-5.12-4.07-5.12s-4.57,2.1-4.57,6.31V33.3h-6.4V10.06h6V13h.09a8.27,8.27,0,0,1,6.81-3.48c5.22,0,8.55,3.2,8.55,9.51"/><path class="cls-1" d="M240,33.3V30.24h-.09a7.66,7.66,0,0,1-6.68,3.66c-5.86,0-9.65-4.8-9.65-12.21S227.3,9.47,233.1,9.47a7.73,7.73,0,0,1,6.59,3.39h.09V.73h6.4V33.3Zm-9.74-11.62c0,4.44,2,7.32,5,7.32,2.88,0,4.85-2.7,4.85-7.32s-2-7.32-4.85-7.32c-3.07,0-5,2.88-5,7.32"/><path class="cls-1" d="M264.35,26.26h6.54C270,30.51,265.95,34,259.77,34c-7.32,0-11.57-5.12-11.57-12.53,0-6.86,4.25-12.17,11.53-12.17a10.73,10.73,0,0,1,10.75,7.73,19.26,19.26,0,0,1,.73,5.95h-16.7c.18,4.8,2.52,6.5,5.26,6.5,2.56,0,4.25-1.37,4.57-3.25M254.65,19H264.8c-.41-3.52-2.52-5.12-5.08-5.12s-4.57,1.6-5.08,5.12"/><rect class="cls-1" x="273.17" y="0.73" width="6.4" height="32.57"/><path class="cls-1" d="M283.81,1.75h-.43c0-.49-.27-.72-.75-.72s-.65.2-.65.51.25.45.8.59,1.12.31,1.12,1-.46,1-1.18,1a1.08,1.08,0,0,1-1.23-1.16h.44a.71.71,0,0,0,.8.79c.47,0,.73-.22.73-.58s-.27-.46-.8-.59-1.11-.31-1.11-1,.42-.91,1.09-.91,1.18.37,1.18,1.08"/><path class="cls-1" d="M287.58,4V2.35c0-.42,0-.84,0-1.26h0c-.14.42-.3.84-.45,1.26L286.52,4H286l-.61-1.67c-.15-.42-.3-.84-.45-1.26h0c0,.42,0,.84,0,1.26V4h-.42V.73h.68l.6,1.62c.15.42.3.85.43,1.26h0c.14-.42.29-.85.43-1.26l.59-1.62H288V4Z"/><path class="cls-1" d="M4.94,41.75H3.58a1,1,0,0,0-1.13-1.06c-.59,0-1,.29-1,.71s.39.66,1.41.92c1.22.3,2.27.62,2.27,2,0,1.23-1,2-2.53,2S0,45.59,0,44.12H1.38c0,.78.43,1.19,1.25,1.19s1.12-.32,1.12-.83-.42-.68-1.34-.92c-1.22-.31-2.33-.6-2.33-2,0-1.14,1-1.92,2.39-1.92,1.62,0,2.45.74,2.45,2.13"/><path class="cls-1" d="M7.36,42.13a1.57,1.57,0,0,1,1.27-.62c1,0,1.7.64,1.7,1.89v2.84H9.06V43.53c0-.7-.31-1-.81-1s-.91.41-.91,1.25v2.47H6.07V39.77H7.35v2.36Z"/><path class="cls-1" d="M14.42,44.84h1.3a2.1,2.1,0,0,1-2.21,1.54,2.46,2.46,0,0,1,0-4.91A2.13,2.13,0,0,1,15.64,43a3.83,3.83,0,0,1,.14,1.18H12.46c0,1,.5,1.29,1,1.29a.84.84,0,0,0,.91-.64M12.49,43.4h2a1,1,0,0,0-1-1c-.52,0-.91.32-1,1"/><rect class="cls-1" x="16.7" y="39.77" width="1.27" height="6.47"/><path class="cls-1" d="M21.59,45.24v1a2.54,2.54,0,0,1-.67.09c-1.06,0-1.53-.43-1.53-1.5V42.57h-.74v-.95h.74v-1.2h1.27v1.2h.88v.95h-.88v2c0,.51.16.71.6.71a1.14,1.14,0,0,0,.33,0"/><path class="cls-1" d="M26.72,43.93a2.25,2.25,0,0,1-2.36,2.45,2.46,2.46,0,0,1,0-4.91,2.25,2.25,0,0,1,2.36,2.45m-3.39,0c0,.9.4,1.47,1,1.47s1-.57,1-1.47-.4-1.47-1-1.47-1,.57-1,1.47"/><path class="cls-1" d="M31.9,43.41v2.84H30.63V43.53c0-.7-.31-1-.81-1s-.91.42-.91,1.25v2.47H27.64V41.63h1.19v.58h0a1.64,1.64,0,0,1,1.35-.69c1,0,1.7.64,1.7,1.89"/><polygon class="cls-1" points="33.66 47.81 32.89 47.81 33.39 46.24 32.93 46.24 32.93 44.72 34.33 44.72 34.33 46.24 33.66 47.81"/><path class="cls-1" d="M43.77,46.24V43q0-1.21.05-2.43h0c-.21.79-.44,1.6-.69,2.38l-1,3.26H40.57l-1-3.26c-.25-.78-.48-1.59-.69-2.38h0q.06,1.21.05,2.43v3.22H37.6V39.77h2.14l.94,3c.24.78.46,1.59.64,2.38h0c.17-.79.39-1.6.64-2.38l.94-3h2.14v6.47Z"/><path class="cls-1" d="M46.4,39.77h1.27v1.09H46.4Zm0,1.85h1.27v4.62H46.4Z"/><path class="cls-1" d="M53.16,43.41v2.84H51.88V43.53c0-.7-.31-1-.81-1s-.91.42-.91,1.25v2.47H48.9V41.63h1.19v.58h0a1.64,1.64,0,0,1,1.35-.69c1,0,1.7.64,1.7,1.89"/><path class="cls-1" d="M57.29,46.24v-.61h0a1.52,1.52,0,0,1-1.33.73c-1.16,0-1.92-1-1.92-2.43s.74-2.43,1.9-2.43a1.54,1.54,0,0,1,1.31.67h0V39.77h1.27v6.47Zm-1.94-2.31c0,.88.39,1.45,1,1.45s1-.54,1-1.45-.39-1.45-1-1.45-1,.57-1,1.45"/><path class="cls-1" d="M62.66,44.84H64a2.1,2.1,0,0,1-2.21,1.54,2.46,2.46,0,0,1,0-4.91A2.13,2.13,0,0,1,63.88,43,3.83,3.83,0,0,1,64,44.2H60.71c0,1,.5,1.29,1,1.29a.84.84,0,0,0,.91-.64M60.73,43.4h2a1,1,0,0,0-1-1c-.52,0-.91.32-1,1"/><rect class="cls-1" x="64.94" y="39.77" width="1.27" height="6.47"/><path class="cls-1" d="M73.56,45.74a2.88,2.88,0,0,1-1.93.65c-1.53,0-2.35-.75-2.35-1.89a1.92,1.92,0,0,1,1.34-1.86A1.84,1.84,0,0,1,70,41.19c0-.94.74-1.56,1.85-1.56s1.82.58,1.82,1.5a2,2,0,0,1-1.14,1.74L73.61,44a2.88,2.88,0,0,0,.29-1.43h1.26a3.87,3.87,0,0,1-.71,2.3l1.32,1.35H74ZM72.81,45l-1.5-1.54c-.51.29-.68.58-.68,1s.41.89,1.14.89a1.83,1.83,0,0,0,1-.32m-1.6-3.71c0,.3.13.5.54.93a1.24,1.24,0,0,0,.65-1,.6.6,0,0,0-1.2,0"/><path class="cls-1" d="M79.72,44.66l-.51,1.58h-1.4l2.24-6.47h1.8l2.24,6.47h-1.4l-.5-1.58Zm2-1.57c-.26-.84-.52-1.69-.74-2.53h0c-.22.84-.46,1.69-.73,2.53l-.14.43h1.75Z"/><path class="cls-1" d="M88.31,43H87.09c0-.47-.27-.67-.73-.67s-.63.16-.63.43.29.41,1,.59,1.74.43,1.74,1.55c0,.86-.78,1.44-2,1.44s-2.07-.53-2.07-1.64h1.29c0,.46.28.73.81.73s.67-.17.67-.44-.35-.48-1.06-.67-1.6-.38-1.6-1.45c0-.83.76-1.42,1.91-1.42S88.31,42,88.31,43"/><path class="cls-1" d="M93.05,43H91.83c0-.47-.27-.67-.73-.67s-.63.16-.63.43.29.41,1,.59,1.73.43,1.73,1.55c0,.86-.78,1.44-2,1.44s-2.07-.53-2.07-1.64h1.29c0,.46.28.73.81.73s.67-.17.67-.44-.35-.48-1.06-.67-1.6-.38-1.6-1.45c0-.83.76-1.42,1.91-1.42S93.05,42,93.05,43"/><path class="cls-1" d="M98.61,43.93a2.36,2.36,0,1,1-2.36-2.45,2.25,2.25,0,0,1,2.36,2.45m-3.39,0c0,.9.4,1.47,1,1.47s1-.57,1-1.47-.4-1.47-1-1.47-1,.57-1,1.47"/><path class="cls-1" d="M103.83,43.34H102.5a.86.86,0,0,0-.86-.88c-.62,0-1,.56-1,1.47s.37,1.47,1,1.47.82-.37.85-1h1.34a2.05,2.05,0,0,1-2.18,2,2.46,2.46,0,0,1,0-4.91,2,2,0,0,1,2.18,1.86"/><path class="cls-1" d="M104.71,39.77H106v1.09h-1.27Zm0,1.85H106v4.62h-1.27Z"/><path class="cls-1" d="M111,43.31V45a4.89,4.89,0,0,0,.13,1.26H110a2.66,2.66,0,0,1-.06-.62h0a1.74,1.74,0,0,1-1.5.73,1.41,1.41,0,0,1-1.57-1.4c0-.75.45-1.26,1.79-1.47.35-.05.86-.11,1.15-.13v-.16c0-.58-.31-.82-.75-.82a.69.69,0,0,0-.76.7H107c0-.88.68-1.59,2-1.59s2,.62,2,1.83m-1.23.82c-.27,0-.65.05-.93.1-.53.09-.74.26-.74.64s.24.58.68.58a1,1,0,0,0,.73-.26,1.1,1.1,0,0,0,.26-.88Z"/><path class="cls-1" d="M114.46,45.24v1a2.54,2.54,0,0,1-.67.09c-1.06,0-1.53-.43-1.53-1.5V42.57h-.74v-.95h.74v-1.2h1.27v1.2h.88v.95h-.88v2c0,.51.16.71.6.71a1.14,1.14,0,0,0,.33,0"/><path class="cls-1" d="M118.07,44.84h1.3a2.1,2.1,0,0,1-2.21,1.54,2.46,2.46,0,0,1,0-4.91A2.13,2.13,0,0,1,119.29,43a3.83,3.83,0,0,1,.15,1.18h-3.32c0,1,.5,1.29,1,1.29a.84.84,0,0,0,.91-.64m-1.93-1.44h2a1,1,0,0,0-1-1c-.52,0-.91.32-1,1"/><path class="cls-1" d="M124,43h-1.22c0-.47-.27-.67-.73-.67s-.63.16-.63.43.29.41,1,.59,1.73.43,1.73,1.55c0,.86-.78,1.44-2,1.44s-2.07-.53-2.07-1.64h1.29c0,.46.28.73.81.73s.67-.17.67-.44-.35-.48-1.06-.67-1.6-.38-1.6-1.45c0-.83.76-1.42,1.91-1.42S124,42,124,43"/><polygon class="cls-1" points="125.72 47.81 124.96 47.81 125.46 46.24 124.99 46.24 124.99 44.72 126.39 44.72 126.39 46.24 125.72 47.81"/><rect class="cls-1" x="129.67" y="39.77" width="1.34" height="6.47"/><path class="cls-1" d="M136.61,43.41v2.84h-1.27V43.53c0-.7-.31-1-.81-1s-.91.42-.91,1.25v2.47h-1.27V41.63h1.19v.58h0a1.64,1.64,0,0,1,1.35-.69c1,0,1.7.64,1.7,1.89"/><path class="cls-1" d="M142,43.34h-1.33a.86.86,0,0,0-.86-.88c-.62,0-1,.56-1,1.47s.37,1.47,1,1.47.82-.37.85-1H142a2.05,2.05,0,0,1-2.18,2,2.46,2.46,0,0,1,0-4.91A2,2,0,0,1,142,43.34"/><rect class="cls-1" x="142.73" y="44.72" width="1.4" height="1.52"/><path class="cls-1" d="M151.33,45.74a2.88,2.88,0,0,1-1.93.65c-1.53,0-2.35-.75-2.35-1.89a1.92,1.92,0,0,1,1.34-1.86,1.84,1.84,0,0,1-.66-1.45c0-.94.74-1.56,1.85-1.56s1.82.58,1.82,1.5a2,2,0,0,1-1.14,1.74L151.37,44a2.86,2.86,0,0,0,.29-1.43h1.26a3.86,3.86,0,0,1-.71,2.3l1.32,1.35h-1.73Zm-.75-.76-1.5-1.54c-.51.29-.68.58-.68,1s.41.89,1.14.89a1.83,1.83,0,0,0,1-.32M149,41.27c0,.3.13.5.54.93a1.24,1.24,0,0,0,.65-1,.6.6,0,0,0-1.2,0"/><polygon class="cls-1" points="160.69 45.1 160.69 46.24 156.31 46.24 156.31 39.77 157.64 39.77 157.64 45.1 160.69 45.1"/><path class="cls-1" d="M164.22,44.84h1.3a2.1,2.1,0,0,1-2.21,1.54,2.46,2.46,0,0,1,0-4.91A2.13,2.13,0,0,1,165.44,43a3.83,3.83,0,0,1,.14,1.18h-3.32c0,1,.5,1.29,1,1.29a.84.84,0,0,0,.91-.64M162.3,43.4h2a1,1,0,0,0-1-1c-.52,0-.91.32-1,1"/><path class="cls-1" d="M169.5,44.84h1.3a2.1,2.1,0,0,1-2.21,1.54,2.46,2.46,0,0,1,0-4.91A2.13,2.13,0,0,1,170.72,43a3.83,3.83,0,0,1,.14,1.18h-3.32c0,1,.5,1.29,1,1.29a.84.84,0,0,0,.91-.64m-1.93-1.44h2a1,1,0,0,0-1-1c-.52,0-.91.32-1,1"/><polygon class="cls-1" points="175.32 40.92 175.32 42.68 178.08 42.68 178.08 43.83 175.32 43.83 175.32 46.24 173.99 46.24 173.99 39.77 178.31 39.77 178.31 40.92 175.32 40.92"/><rect class="cls-1" x="178.73" y="44.72" width="1.4" height="1.52"/><path class="cls-1" d="M189.58,46.24V43q0-1.21.05-2.43h0c-.21.79-.45,1.6-.69,2.38l-1,3.26h-1.53l-1-3.26c-.24-.78-.48-1.59-.69-2.38h0q.05,1.21.05,2.43v3.22h-1.28V39.77h2.15l.94,3c.24.78.46,1.59.64,2.38h0c.17-.79.39-1.6.64-2.38l.94-3h2.15v6.47Z"/><path class="cls-1" d="M192.21,39.77h1.27v1.09h-1.27Zm0,1.85h1.27v4.62h-1.27Z"/><path class="cls-1" d="M199,43.41v2.84h-1.27V43.53c0-.7-.31-1-.81-1s-.91.42-.91,1.25v2.47H194.7V41.63h1.19v.58h0a1.64,1.64,0,0,1,1.35-.69c1,0,1.7.64,1.7,1.89"/><path class="cls-1" d="M203.1,46.24v-.61h0a1.52,1.52,0,0,1-1.33.73c-1.16,0-1.92-1-1.92-2.43s.74-2.43,1.9-2.43a1.54,1.54,0,0,1,1.31.67h0V39.77h1.27v6.47Zm-1.93-2.31c0,.88.39,1.45,1,1.45s1-.54,1-1.45-.39-1.45-1-1.45-1,.57-1,1.45"/><path class="cls-1" d="M208.46,44.84h1.3a2.1,2.1,0,0,1-2.21,1.54,2.46,2.46,0,0,1,0-4.91A2.13,2.13,0,0,1,209.68,43a3.83,3.83,0,0,1,.14,1.18h-3.32c0,1,.5,1.29,1,1.29a.84.84,0,0,0,.91-.64m-1.93-1.44h2a1,1,0,0,0-1-1c-.52,0-.91.32-1,1"/><rect class="cls-1" x="210.75" y="39.77" width="1.27" height="6.47"/><polygon class="cls-1" points="213.82 47.81 213.06 47.81 213.56 46.24 213.09 46.24 213.09 44.72 214.49 44.72 214.49 46.24 213.82 47.81"/><path class="cls-1" d="M219,44.66l-.51,1.58H217l2.24-6.47h1.8l2.24,6.47h-1.4l-.5-1.58Zm2-1.57c-.26-.84-.52-1.69-.74-2.53h0c-.22.84-.46,1.69-.73,2.53l-.13.43h1.75Z"/><path class="cls-1" d="M226.84,41.61v1.1a2.17,2.17,0,0,0-.4,0c-.78,0-1.2.49-1.2,1.4v2.18H224V41.63h1.17v.65h0a1.39,1.39,0,0,1,1.26-.73,1.67,1.67,0,0,1,.42.05"/><path class="cls-1" d="M231.61,43.34h-1.33a.86.86,0,0,0-.86-.88c-.62,0-1,.56-1,1.47s.37,1.47,1,1.47.82-.37.85-1h1.34a2.05,2.05,0,0,1-2.18,2,2.46,2.46,0,0,1,0-4.91,2,2,0,0,1,2.18,1.86"/><path class="cls-1" d="M233.78,42.13a1.57,1.57,0,0,1,1.27-.62c1,0,1.7.64,1.7,1.89v2.84h-1.27V43.53c0-.7-.31-1-.81-1s-.91.41-.91,1.25v2.47h-1.27V39.77h1.27v2.36Z"/><path class="cls-1" d="M237.93,39.77h1.27v1.09h-1.27Zm0,1.85h1.27v4.62h-1.27Z"/><path class="cls-1" d="M242.82,45.24v1a2.54,2.54,0,0,1-.67.09c-1.06,0-1.53-.43-1.53-1.5V42.57h-.74v-.95h.74v-1.2h1.27v1.2h.88v.95h-.88v2c0,.51.16.71.6.71a1.14,1.14,0,0,0,.33,0"/><path class="cls-1" d="M246.43,44.84h1.3a2.1,2.1,0,0,1-2.21,1.54,2.46,2.46,0,0,1,0-4.91A2.13,2.13,0,0,1,247.65,43a3.83,3.83,0,0,1,.14,1.18h-3.32c0,1,.5,1.29,1,1.29a.84.84,0,0,0,.91-.64M244.5,43.4h2a1,1,0,0,0-1-1c-.52,0-.91.32-1,1"/><path class="cls-1" d="M253,43.34h-1.33a.86.86,0,0,0-.86-.88c-.62,0-1,.56-1,1.47s.37,1.47,1,1.47.82-.37.85-1H253a2.05,2.05,0,0,1-2.18,2,2.46,2.46,0,0,1,0-4.91A2,2,0,0,1,253,43.34"/><path class="cls-1" d="M256.3,45.24v1a2.54,2.54,0,0,1-.67.09c-1.06,0-1.53-.43-1.53-1.5V42.57h-.74v-.95h.74v-1.2h1.27v1.2h.88v.95h-.88v2c0,.51.16.71.6.71a1.14,1.14,0,0,0,.33,0"/><polygon class="cls-1" points="257.89 47.81 257.12 47.81 257.62 46.24 257.16 46.24 257.16 44.72 258.56 44.72 258.56 46.24 257.89 47.81"/><path class="cls-1" d="M264,39.77c2.2,0,3.44,1.16,3.44,3.24s-1.24,3.24-3.44,3.24h-2.15V39.77Zm-.83,5.33H264A1.83,1.83,0,0,0,266,43,1.83,1.83,0,0,0,264,40.92h-.81Z"/><path class="cls-1" d="M270.93,39.77c1.57,0,2.37.84,2.37,2.09S272.5,44,270.93,44h-1.11v2.29h-1.34V39.77Zm-1.11,3.07h.93c.84,0,1.19-.37,1.19-1s-.35-1-1.19-1h-.93Z"/><path class="cls-1" d="M279.58,42h-1.34a1.26,1.26,0,0,0-1.34-1.21c-1,0-1.58.84-1.58,2.2s.59,2.2,1.55,2.2A1.29,1.29,0,0,0,278.23,44h1.37a2.5,2.5,0,0,1-2.74,2.42c-1.82,0-2.94-1.28-2.94-3.38s1.13-3.38,3-3.38A2.46,2.46,0,0,1,279.58,42"/></svg>